<svg xmlns="http://www.w3.org/2000/svg" xmlns:xlink="http://www.w3.org/1999/xlink" viewBox="0 0 84.74 135.48"><defs><style>.cls-1{fill:none;}.cls-2{clip-path:url(#clip-path);}.cls-3{fill:#34669a;}.cls-4{fill:#d7d7d7;}.cls-5{fill:#eaeaea;}.cls-6{clip-path:url(#clip-path-2);}.cls-7{fill:#fff;}</style><clipPath id="clip-path" transform="translate(0 0)"><rect class="cls-1" x="19.56" y="23.48" width="65.17" height="112"/></clipPath><clipPath id="clip-path-2" transform="translate(0 0)"><rect class="cls-1" width="46.8" height="46.8"/></clipPath></defs><title>Asset 3</title><g id="Layer_2" data-name="Layer 2"><g id="Layer_1-2" data-name="Layer 1"><g class="cls-2"><path class="cls-3" d="M81.34,63.53H23V28.39a1.59,1.59,0,0,1,1.66-1.52H79.68a1.59,1.59,0,0,1,1.66,1.52Zm0,61.48a1.59,1.59,0,0,1-1.66,1.52H24.62A1.59,1.59,0,0,1,23,125V66.92H81.34Zm-6.54,7.07H71v-2.16H74.8Zm-41.48,0H29.51v-2.16h3.81ZM79.68,23.48H24.62a5,5,0,0,0-5.05,4.91V125a5,5,0,0,0,5.05,4.91h1.49v3.86a1.7,1.7,0,0,0,1.7,1.7H35a1.7,1.7,0,0,0,1.7-1.7v-3.86H67.59v3.86a1.69,1.69,0,0,0,1.69,1.7h7.21a1.69,1.69,0,0,0,1.7-1.7v-3.86h1.49A5,5,0,0,0,84.74,125V28.39a5,5,0,0,0-5.06-4.91" transform="translate(0 0)"/><rect class="cls-4" x="70.98" y="129.92" width="3.82" height="2.15"/><rect class="cls-4" x="29.5" y="129.92" width="3.82" height="2.15"/><path class="cls-5" d="M73.12,90.15a1.7,1.7,0,1,1-3.4,0V78.41a1.7,1.7,0,0,1,3.4,0ZM23,66.92V125a1.59,1.59,0,0,0,1.66,1.53H79.68A1.59,1.59,0,0,0,81.34,125V66.92Zm50.16-8.85a1.7,1.7,0,0,1-3.4,0V46.33a1.7,1.7,0,0,1,3.4,0Zm6.56-31.2H24.62A1.59,1.59,0,0,0,23,28.39V63.54H81.34V28.39a1.59,1.59,0,0,0-1.66-1.52" transform="translate(0 0)"/><path class="cls-4" d="M48.55,126.54H24.62A1.59,1.59,0,0,1,23,125V66.92H46.88V125a1.6,1.6,0,0,0,1.67,1.53m0-99.67a1.6,1.6,0,0,0-1.67,1.52V63.54H23V28.39a1.59,1.59,0,0,1,1.66-1.52Z" transform="translate(0 0)"/><path class="cls-3" d="M73.12,78.41V90.15a1.7,1.7,0,1,1-3.4,0V78.41a1.7,1.7,0,0,1,3.4,0m0-32.08V58.07a1.7,1.7,0,0,1-3.4,0V46.33a1.7,1.7,0,0,1,3.4,0" transform="translate(0 0)"/></g><g class="cls-6"><path class="cls-3" d="M46.8,23.4A23.4,23.4,0,1,1,23.4,0,23.4,23.4,0,0,1,46.8,23.4" transform="translate(0 0)"/><path class="cls-7" d="M30.6,34.2h3.6V36H30.6Zm-18,0h3.6V36H12.6Zm20.7-5.4a.9.9,0,1,0,.9.9.9.9,0,0,0-.9-.9m-3.6,0a.9.9,0,1,0,.9.9.9.9,0,0,0-.9-.9m-3.6,0a.9.9,0,1,0,.9.9.9.9,0,0,0-.9-.9m-12.6,0a.9.9,0,1,0,.9.9.9.9,0,0,0-.9-.9M10.8,27H36v5.4H10.8Zm22.5-5.4a.9.9,0,1,0,.9.9.9.9,0,0,0-.9-.9m-3.6,0a.9.9,0,1,0,.9.9.9.9,0,0,0-.9-.9m-3.6,0a.9.9,0,1,0,.9.9.9.9,0,0,0-.9-.9m-12.6,0a.9.9,0,1,0,.9.9.9.9,0,0,0-.9-.9m-2.7-1.8H36v5.4H10.8Zm22.5-5.4a.9.9,0,1,0,.9.9.9.9,0,0,0-.9-.9m-3.6,0a.9.9,0,1,0,.9.9.9.9,0,0,0-.9-.9m-3.6,0a.9.9,0,1,0,.9.9.9.9,0,0,0-.9-.9m-12.6,0a.9.9,0,1,0,.9.9.9.9,0,0,0-.9-.9m-2.7-1.8H36V18H10.8ZM9,10.8V34.2h1.8v3.6H18V34.2H28.8v3.6H36V34.2h1.8V10.8Z" transform="translate(0 0)"/></g></g></g></svg>